<?xml version="1.0" encoding="utf-8"?>
<!-- Generator: Adobe Illustrator 28.5.0, SVG Export Plug-In . SVG Version: 9.03 Build 54727)  -->
<svg version="1.1" id="Layer_1" xmlns="http://www.w3.org/2000/svg" xmlns:xlink="http://www.w3.org/1999/xlink" x="0px" y="0px"
	 viewBox="0 0 1053 319" style="enable-background:new 0 0 1053 319;" xml:space="preserve">
<style type="text/css">
	.st0{fill:#FFFFFF;}
</style>
<symbol  id="New_Symbol" viewBox="-169.5 -147.2 339.1 294.3">
	<polygon class="st0" points="169.5,38.3 1,-147.2 -169.5,37.7 0.4,147.2 	"/>
</symbol>
<use xlink:href="#New_Symbol"  width="339.1" height="294.3" id="XMLID_00000181798779728843522390000009470952803512943514_" x="-169.5" y="-147.2" transform="matrix(1 0 0 -1 186.4601 157.8255)" style="overflow:visible;"/>
<g>
	<path class="st0" d="M494.9,236h-82V78h18.5v141.3h63.5V236z"/>
	<path class="st0" d="M594.8,233.7H577v-17.4h-0.4c-7.7,13.3-19.1,20-34.2,20c-11.1,0-19.7-2.9-26-8.8c-6.3-5.9-9.4-13.6-9.4-23.3
		c0-20.8,12.2-32.9,36.7-36.3l33.3-4.7c0-18.9-7.6-28.3-22.9-28.3c-13.4,0-25.5,4.6-36.3,13.7v-18.2c10.9-6.9,23.5-10.4,37.8-10.4
		c26.1,0,39.2,13.8,39.2,41.5V233.7z M577,177.4l-26.8,3.7c-8.3,1.2-14.5,3.2-18.7,6.1c-4.2,2.9-6.3,8.1-6.3,15.6
		c0,5.4,1.9,9.9,5.8,13.3c3.9,3.4,9,5.2,15.5,5.2c8.8,0,16.1-3.1,21.9-9.3c5.8-6.2,8.6-14,8.6-23.5V177.4z"/>
	<path class="st0" d="M686.6,140.5c-3.2-2.4-7.8-3.7-13.8-3.7c-7.8,0-14.3,3.7-19.5,11c-5.2,7.3-7.8,17.4-7.8,30.1V236h-18.3V122
		h18.3v23.5h0.4c2.6-8,6.6-14.3,11.9-18.8c5.3-4.5,11.3-6.7,17.9-6.7c4.7,0,8.4,0.5,10.9,1.6V140.5z"/>
	<path class="st0" d="M799.5,120l-46.2,116h-18.2l-44-116h20.4l29.5,84.3c2.2,6.2,3.5,11.6,4.1,16.2h0.5c0.8-5.8,2-11.1,3.6-15.7
		l30.8-84.7H799.5z"/>
	<path class="st0" d="M901.5,182.5H823c0.3,12.4,3.6,21.9,10,28.7c6.4,6.7,15.1,10.1,26.3,10.1c12.5,0,24-4.1,34.5-12.4v16.7
		c-9.8,7.1-22.7,10.6-38.8,10.6c-15.7,0-28-5-37-15.1c-9-10.1-13.5-24.3-13.5-42.6c0-17.3,4.9-31.4,14.7-42.3
		c9.8-10.9,22-16.3,36.5-16.3c14.5,0,25.8,4.7,33.8,14.1c8,9.4,11.9,22.5,11.9,39.2V182.5z M883.2,167.5c-0.1-10.3-2.6-18.3-7.4-24
		c-4.9-5.7-11.7-8.6-20.4-8.6c-8.4,0-15.5,3-21.4,9c-5.9,6-9.5,13.9-10.9,23.6H883.2z"/>
	<path class="st0" d="M1018.5,120l-51.9,130.9c-9.3,23.4-22.3,35.1-39,35.1c-4.7,0-8.6-0.5-11.8-1.4v-16.2c3.9,1.3,7.5,2,10.7,2
		c9.1,0,15.9-5.4,20.5-16.3l9-21.4L911.9,120H932l30.5,86.9c0.4,1.1,1.1,4,2.3,8.6h0.7c0.4-1.8,1.1-4.6,2.2-8.4l32.1-87.1H1018.5z"
		/>
</g>
</svg>
